# Blender v2.82 (sub 7) OBJ File: ''
# www.blender.org
mtllib pied.mtl
o blakbobomb
v -6.181050 0.771053 1.839133
v 0.193048 0.700534 3.808849
v -0.280741 3.174895 2.976701
v 4.605570 -1.827734 1.731257
v 4.606693 -1.686860 -1.546808
v 5.161891 0.747666 2.968143
v 5.163801 0.985134 -2.557761
v -5.518005 -1.721171 -1.270377
v -6.179862 0.915956 -1.532564
v 0.294817 -1.639984 -2.859974
v 0.195560 1.014470 -3.496593
v -5.518919 -1.833870 1.352069
v 0.292791 -1.893552 3.040564
v 3.563577 3.747142 -1.407454
v 3.562372 3.598226 2.057952
v -0.278860 3.408339 -2.455520
vt 0.218585 0.807181
vt 0.349282 0.937877
vt 0.349282 0.807181
vt 0.218585 0.807181
vt 0.349282 0.937877
vt 0.349282 0.807181
vt 0.218585 0.807181
vt 0.349282 0.937877
vt 0.218585 0.807181
vt 0.349282 0.937877
vt 0.349282 0.807181
vt 0.218585 0.807181
vt 0.349282 0.937877
vt 0.218585 0.807181
vt 0.349282 0.937877
vt 0.349282 0.807181
vt 0.349282 0.937877
vt 0.218585 0.807181
vt 0.349282 0.937877
vt 0.349282 0.807181
vt 0.218585 0.807181
vt 0.349282 0.937877
vt 0.349282 0.937877
vt 0.349282 0.807181
vt 0.349282 0.937877
vt 0.349282 0.937877
vt 0.349282 0.807181
vt 0.349282 0.807181
vt 0.349282 0.937877
vt 0.218585 0.807181
vt 0.349282 0.937877
vt 0.218585 0.807181
vt 0.349282 0.937877
vt 0.349282 0.937877
vt 0.349282 0.807181
vt 0.218585 0.807181
vn -0.7915 0.3117 0.5257
vn -0.0463 0.0191 0.9987
vn -0.1714 0.7628 0.6234
vn 0.5824 -0.7478 0.3188
vn 0.5729 -0.7111 -0.4076
vn 0.7590 0.0645 0.6478
vn 0.7565 0.0979 -0.6465
vn -0.5625 -0.6765 -0.4752
vn -0.7886 0.3525 -0.5038
vn 0.0076 -0.7169 -0.6971
vn -0.0272 0.0684 -0.9973
vn -0.5680 -0.7170 0.4041
vn -0.0211 -0.7760 0.6304
vn 0.4193 0.8397 -0.3450
vn 0.4122 0.8021 0.4321
vn -0.1713 0.8144 -0.5545
usemtl Material.065_pinkbomb_grp.png
s 1
f 1/1/1 2/2/2 3/3/3
f 4/4/4 5/5/5 6/6/6
f 5/7/5 7/8/7 6/6/6
f 8/9/8 9/10/9 10/11/10
f 9/12/9 11/13/11 10/11/10
f 12/14/12 8/15/8 13/16/13
f 8/9/8 10/17/10 13/16/13
f 14/18/14 15/19/15 7/20/7
f 15/21/15 6/22/6 7/20/7
f 8/9/8 12/23/12 9/24/9
f 12/14/12 1/25/1 9/24/9
f 9/12/9 16/26/16 11/27/11
f 1/1/1 12/23/12 2/28/2
f 12/14/12 13/29/13 2/28/2
f 7/30/7 5/5/5 11/27/11
f 5/7/5 10/17/10 11/27/11
f 15/21/15 14/31/14 3/3/3
f 14/18/14 16/26/16 3/3/3
f 4/4/4 6/22/6 13/16/13
f 6/32/6 2/2/2 13/16/13
f 6/32/6 15/19/15 2/28/2
f 15/21/15 3/33/3 2/28/2
f 5/7/5 4/34/4 10/11/10
f 4/4/4 13/29/13 10/11/10
f 14/18/14 7/8/7 16/35/16
f 7/30/7 11/13/11 16/35/16
f 16/36/16 9/10/9 3/3/3
f 9/12/9 1/25/1 3/3/3
